<svg xmlns="http://www.w3.org/2000/svg" xmlns:xlink="http://www.w3.org/1999/xlink" width="0" height="0" style="display:none;"><symbol id="iconic-plus-circle-alt"><path fill-rule="evenodd" clip-rule="evenodd" d="M11.5 22C17.299 22 22 17.299 22 11.5S17.299 1 11.5 1 1 5.701 1 11.5 5.701 22 11.5 22Zm0 1C17.851 23 23 17.851 23 11.5S17.851 0 11.5 0 0 5.149 0 11.5 5.149 23 11.5 23ZM18 11.5a.5.5 0 0 1-.5.5H12v5.5a.5.5 0 0 1-1 0V12H5.5a.5.5 0 0 1 0-1H11V5.5a.5.5 0 0 1 1 0V11h5.5a.5.5 0 0 1 .5.5Z" fill="#223470"></path></symbol><symbol id="iconic-plus-circle"><path fill-rule="evenodd" clip-rule="evenodd" d="M11.5 22C17.299 22 22 17.299 22 11.5S17.299 1 11.5 1 1 5.701 1 11.5 5.701 22 11.5 22Zm0 1C17.851 23 23 17.851 23 11.5S17.851 0 11.5 0 0 5.149 0 11.5 5.149 23 11.5 23ZM18 11.5a.5.5 0 0 1-.5.5H12v5.5a.5.5 0 0 1-1 0V12H5.5a.5.5 0 0 1 0-1H11V5.5a.5.5 0 0 1 1 0V11h5.5a.5.5 0 0 1 .5.5Z" fill="#223470"></path></symbol></svg>